<svg xmlns="http://www.w3.org/2000/svg" viewBox="0 0 720 300" width="720" height="300">
<line x1="52" x2="706" y1="254.0" y2="254.0" stroke="#2c2c2a" stroke-width="1"/>
<text x="42" y="258.0" font-family="system-ui,-apple-system,Segoe UI,sans-serif" font-size="11.5" fill="#9b9a92" text-anchor="end">0</text>
<line x1="52" x2="706" y1="194.5" y2="194.5" stroke="#2c2c2a" stroke-width="1"/>
<text x="42" y="198.5" font-family="system-ui,-apple-system,Segoe UI,sans-serif" font-size="11.5" fill="#9b9a92" text-anchor="end">40</text>
<line x1="52" x2="706" y1="135.0" y2="135.0" stroke="#2c2c2a" stroke-width="1"/>
<text x="42" y="139.0" font-family="system-ui,-apple-system,Segoe UI,sans-serif" font-size="11.5" fill="#9b9a92" text-anchor="end">80</text>
<line x1="52" x2="706" y1="75.5" y2="75.5" stroke="#2c2c2a" stroke-width="1"/>
<text x="42" y="79.5" font-family="system-ui,-apple-system,Segoe UI,sans-serif" font-size="11.5" fill="#9b9a92" text-anchor="end">120</text>
<line x1="52" x2="706" y1="16.0" y2="16.0" stroke="#2c2c2a" stroke-width="1"/>
<text x="42" y="20.0" font-family="system-ui,-apple-system,Segoe UI,sans-serif" font-size="11.5" fill="#9b9a92" text-anchor="end">160</text>
<line x1="52" x2="706" y1="30.9" y2="30.9" stroke="#3d3d39" stroke-width="1.5"/>
<text x="706" y="23.9" font-family="system-ui,-apple-system,Segoe UI,sans-serif" font-size="11.5" fill="#9b9a92" text-anchor="end">150 ms target</text>
<path d="M99.0,254.0V222.0a4,4 0 0 1 4,-4h32a4,4 0 0 1 4,4V254.0Z" fill="#86b6ef"/>
<path d="M141.0,254.0V209.4a4,4 0 0 1 4,-4h32a4,4 0 0 1 4,4V254.0Z" fill="#3987e5"/>
<path d="M183.0,254.0V191.7a4,4 0 0 1 4,-4h32a4,4 0 0 1 4,4V254.0Z" fill="#184f95"/>
<text x="203.0" y="179.7" font-family="system-ui,-apple-system,Segoe UI,sans-serif" font-size="12" font-weight="600" fill="#ececE6" text-anchor="middle">44.6</text>
<text x="161.0" y="276" font-family="system-ui,-apple-system,Segoe UI,sans-serif" font-size="12.5" fill="#9b9a92" text-anchor="middle">1,600</text>
<path d="M317.0,254.0V220.4a4,4 0 0 1 4,-4h32a4,4 0 0 1 4,4V254.0Z" fill="#86b6ef"/>
<path d="M359.0,254.0V206.4a4,4 0 0 1 4,-4h32a4,4 0 0 1 4,4V254.0Z" fill="#3987e5"/>
<path d="M401.0,254.0V167.7a4,4 0 0 1 4,-4h32a4,4 0 0 1 4,4V254.0Z" fill="#184f95"/>
<text x="421.0" y="155.7" font-family="system-ui,-apple-system,Segoe UI,sans-serif" font-size="12" font-weight="600" fill="#ececE6" text-anchor="middle">60.7</text>
<text x="379.0" y="276" font-family="system-ui,-apple-system,Segoe UI,sans-serif" font-size="12.5" fill="#9b9a92" text-anchor="middle">2,400</text>
<path d="M535.0,254.0V218.9a4,4 0 0 1 4,-4h32a4,4 0 0 1 4,4V254.0Z" fill="#86b6ef"/>
<path d="M577.0,254.0V202.1a4,4 0 0 1 4,-4h32a4,4 0 0 1 4,4V254.0Z" fill="#3987e5"/>
<path d="M619.0,254.0V88.7a4,4 0 0 1 4,-4h32a4,4 0 0 1 4,4V254.0Z" fill="#184f95"/>
<text x="639.0" y="76.7" font-family="system-ui,-apple-system,Segoe UI,sans-serif" font-size="12" font-weight="600" fill="#ececE6" text-anchor="middle">113.8</text>
<text x="597.0" y="276" font-family="system-ui,-apple-system,Segoe UI,sans-serif" font-size="12.5" fill="#9b9a92" text-anchor="middle">3,200</text>
<line x1="52" x2="706" y1="254" y2="254" stroke="#3d3d39" stroke-width="1"/>
<rect x="52" y="284" width="9" height="9" rx="2" fill="#86b6ef"/>
<text x="66" y="292" font-family="system-ui,-apple-system,Segoe UI,sans-serif" font-size="11.5" fill="#9b9a92">p50</text>
<rect x="114" y="284" width="9" height="9" rx="2" fill="#3987e5"/>
<text x="128" y="292" font-family="system-ui,-apple-system,Segoe UI,sans-serif" font-size="11.5" fill="#9b9a92">p90</text>
<rect x="176" y="284" width="9" height="9" rx="2" fill="#184f95"/>
<text x="190" y="292" font-family="system-ui,-apple-system,Segoe UI,sans-serif" font-size="11.5" fill="#9b9a92">p99</text>
<text x="706" y="292" font-family="system-ui,-apple-system,Segoe UI,sans-serif" font-size="11.5" fill="#9b9a92" text-anchor="end">held sessions, 10% duty, 2 GPUs</text>
<text x="12" y="135.0" font-family="system-ui,-apple-system,Segoe UI,sans-serif" font-size="11.5" fill="#9b9a92" text-anchor="middle" transform="rotate(-90 12 135.0)">time to first audio (ms)</text>
</svg>